<svg xmlns="http://www.w3.org/2000/svg" viewBox="0 0 400 200" fill="none" stroke="#000" stroke-width="2">
  <path d="M350 80 L380 70 L390 80 L380 90 Z" />
  <path d="M340 85 L350 80 L330 90 L340 85" />
  <path d="M320 90 L340 85 L310 100 L320 90" />
  <path d="M300 100 L320 90 L290 110 L300 100" />
  <path d="M280 110 L300 100 L270 120 L280 110" />
  <path d="M260 120 L280 110 L250 130 L260 120" />
  <path d="M240 130 L260 120 L230 140 L240 130" />
  <path d="M220 140 L240 130 L210 150 L220 140" />
  <path d="M200 150 L220 140 L190 160 L200 150" />
  <path d="M180 160 L200 150 L170 170 L180 160" />
  <path d="M160 170 L180 160 L150 180 L160 170" />
  <path d="M140 180 L160 170 L130 190 L140 180" />
  <path d="M120 190 L140 180 L110 195 L120 190" />
  <path d="M360 90 L370 100 L350 110 L360 90" />
  <path d="M340 100 L360 90 L330 120 L340 100" />
  <path d="M320 110 L340 100 L310 130 L320 110" />
  <path d="M300 120 L320 110 L290 140 L300 120" />
  <path d="M280 130 L300 120 L270 150 L280 130" />
  <path d="M260 140 L280 130 L250 160 L260 140" />
  <path d="M240 150 L260 140 L230 170 L240 150" />
  <path d="M220 160 L240 150 L210 180 L220 160" />
  <path d="M200 170 L220 160 L190 190 L200 170" />
  <path d="M180 180 L200 170 L170 195 L180 180" />
  <path d="M380 70 L390 60 L370 50 L380 70" />
  <path d="M370 50 L360 40 L350 50 L370 50" />
  <path d="M350 50 L340 40 L330 50 L350 50" />
  <path d="M330 50 L320 40 L310 50 L330 50" />
  <path d="M310 50 L300 40 L290 50 L310 50" />
  <path d="M290 50 L280 40 L270 50 L290 50" />
  <path d="M270 50 L260 40 L250 50 L270 50" />
  <path d="M250 50 L240 40 L230 50 L250 50" />
  <path d="M230 50 L220 40 L210 50 L230 50" />
  <path d="M210 50 L200 40 L190 50 L210 50" />
  <path d="M190 50 L180 40 L170 50 L190 50" />
  <path d="M170 50 L160 40 L150 50 L170 50" />
  <path d="M150 50 L140 40 L130 50 L150 50" />
  <path d="M130 50 L120 40 L110 50 L130 50" />
  <path d="M110 50 L100 40 L90 50 L110 50" />
  <path d="M90 50 L80 40 L70 50 L90 50" />
  <path d="M70 50 L60 40 L50 50 L70 50" />
  <path d="M50 50 L40 40 L30 50 L50 50" />
  <path d="M30 50 L20 40 L10 50 L30 50" />
  <path d="M390 80 L380 90 L370 85 L390 80" />
  <path d="M370 85 L360 95 L350 90 L370 85" />
  <path d="M350 90 L340 100 L330 95 L350 90" />
  <path d="M330 95 L320 105 L310 100 L330 95" />
  <path d="M310 100 L300 110 L290 105 L310 100" />
  <path d="M290 105 L280 115 L270 110 L290 105" />
  <path d="M270 110 L260 120 L250 115 L270 110" />
  <path d="M250 115 L240 125 L230 120 L250 115" />
  <path d="M230 120 L220 130 L210 125 L230 120" />
  <path d="M210 125 L200 135 L190 130 L210 125" />
  <path d="M190 130 L180 140 L170 135 L190 130" />
  <path d="M170 135 L160 145 L150 140 L170 135" />
  <path d="M150 140 L140 150 L130 145 L150 140" />
  <path d="M130 145 L120 155 L110 150 L130 145" />
  <path d="M110 150 L100 160 L90 155 L110 150" />
  <path d="M90 155 L80 165 L70 160 L90 155" />
  <path d="M70 160 L60 170 L50 165 L70 160" />
  <path d="M50 165 L40 175 L30 170 L50 165" />
  <path d="M30 170 L20 180 L10 175 L30 170" />
  <path d="M390 80 L385 90 L380 85 L390 80" />
  <path d="M385 90 L380 100 L375 95 L385 90" />
  <path d="M380 100 L375 110 L370 105 L380 100" />
  <path d="M375 110 L370 120 L365 115 L375 110" />
  <path d="M370 120 L365 130 L360 125 L370 120" />
  <path d="M365 130 L360 140 L355 135 L365 130" />
  <path d="M360 140 L355 150 L350 145 L360 140" />
  <path d="M355 150 L350 160 L345 155 L355 150" />
  <path d="M350 160 L345 170 L340 165 L350 160" />
  <path d="M345 170 L340 180 L335 175 L345 170" />
  <path d="M340 180 L335 190 L330 185 L340 180" />
  <path d="M335 190 L330 200 L325 195 L335 190" />
  <path d="M325 195 L320 200 L315 195 L325 195" />
  <path d="M315 195 L310 200 L305 195 L315 195" />
  <path d="M305 195 L300 200 L295 195 L305 195" />
  <path d="M295 195 L290 200 L285 195 L295 195" />
  <path d="M285 195 L280 200 L275 195 L285 195" />
  <path d="M275 195 L270 200 L265 195 L275 195" />
  <path d="M265 195 L260 200 L255 195 L265 195" />
  <path d="M255 195 L250 200 L245 195 L255 195" />
  <path d="M245 195 L240 200 L235 195 L245 195" />
  <path d="M235 195 L230 200 L225 195 L235 195" />
  <path d="M225 195 L220 200 L215 195 L225 195" />
  <path d="M215 195 L210 200 L205 195 L215 195" />
  <path d="M205 195 L200 200 L195 195 L205 195" />
  <path d="M195 195 L190 200 L185 195 L195 195" />
  <path d="M185 195 L180 200 L175 195 L185 195" />
  <path d="M175 195 L170 200 L165 195 L175 195" />
  <path d="M165 195 L160 200 L155 195 L165 195" />
  <path d="M155 195 L150 200 L145 195 L155 195" />
  <path d="M145 195 L140 200 L135 195 L145 195" />
  <path d="M135 195 L130 200 L125 195 L135 195" />
  <path d="M125 195 L120 200 L115 195 L125 195" />
  <path d="M115 195 L110 200 L105 195 L115 195" />
  <path d="M105 195 L100 200 L95 195 L105 195" />
  <path d="M95 195 L90 200 L85 195 L95 195" />
  <path d="M85 195 L80 200 L75 195 L85 195" />
  <path d="M75 195 L70 200 L65 195 L75 195" />
  <path d="M65 195 L60 200 L55 195 L65 195" />
  <path d="M55 195 L50 200 L45 195 L55 195" />
  <path d="M45 195 L40 200 L35 195 L45 195" />
  <path d="M35 195 L30 200 L25 195 L35 195" />
  <path d="M25 195 L20 200 L15 195 L25 195" />
  <path d="M15 195 L10 200 L5 195 L15 195" />
</svg>